<svg width="600" height="400" viewBox="0 0 600 400" xmlns="http://www.w3.org/2000/svg">
  <defs>
    <linearGradient id="spaceGradient" x1="0%" y1="0%" x2="100%" y2="100%">
      <stop offset="0%" style="stop-color:#0f172a;stop-opacity:1" />
      <stop offset="25%" style="stop-color:#1e3a8a;stop-opacity:1" />
      <stop offset="50%" style="stop-color:#7c3aed;stop-opacity:1" />
      <stop offset="75%" style="stop-color:#ec4899;stop-opacity:1" />
      <stop offset="100%" style="stop-color:#0f172a;stop-opacity:1" />
    </linearGradient>
    <radialGradient id="planetGradient" cx="50%" cy="30%" r="70%">
      <stop offset="0%" style="stop-color:#3b82f6;stop-opacity:1" />
      <stop offset="100%" style="stop-color:#1d4ed8;stop-opacity:1" />
    </radialGradient>
    <radialGradient id="rocketGradient" cx="50%" cy="30%" r="70%">
      <stop offset="0%" style="stop-color:#fbbf24;stop-opacity:1" />
      <stop offset="100%" style="stop-color:#f59e0b;stop-opacity:1" />
    </radialGradient>
    <filter id="glow">
      <feGaussianBlur stdDeviation="3" result="coloredBlur"/>
      <feMerge> 
        <feMergeNode in="coloredBlur"/>
        <feMergeNode in="SourceGraphic"/>
      </feMerge>
    </filter>
  </defs>
  
  <!-- Background -->
  <rect width="600" height="400" fill="url(#spaceGradient)"/>
  
  <!-- Stars -->
  <circle cx="50" cy="50" r="1" fill="#fff" opacity="0.8"/>
  <circle cx="120" cy="80" r="1.5" fill="#fff" opacity="0.9"/>
  <circle cx="200" cy="40" r="1" fill="#fff" opacity="0.7"/>
  <circle cx="300" cy="60" r="2" fill="#fff" opacity="0.8"/>
  <circle cx="400" cy="30" r="1" fill="#fff" opacity="0.6"/>
  <circle cx="500" cy="70" r="1.5" fill="#fff" opacity="0.9"/>
  <circle cx="80" cy="150" r="1" fill="#fff" opacity="0.7"/>
  <circle cx="180" cy="120" r="1" fill="#fff" opacity="0.8"/>
  <circle cx="250" cy="180" r="1.5" fill="#fff" opacity="0.6"/>
  <circle cx="350" cy="140" r="1" fill="#fff" opacity="0.9"/>
  <circle cx="450" cy="160" r="1" fill="#fff" opacity="0.7"/>
  <circle cx="550" cy="120" r="1.5" fill="#fff" opacity="0.8"/>
  <circle cx="100" cy="250" r="1" fill="#fff" opacity="0.6"/>
  <circle cx="220" cy="220" r="1" fill="#fff" opacity="0.9"/>
  <circle cx="320" cy="280" r="1.5" fill="#fff" opacity="0.7"/>
  <circle cx="420" cy="240" r="1" fill="#fff" opacity="0.8"/>
  <circle cx="520" cy="260" r="1" fill="#fff" opacity="0.6"/>
  <circle cx="60" cy="320" r="1.5" fill="#fff" opacity="0.8"/>
  <circle cx="160" cy="300" r="1" fill="#fff" opacity="0.7"/>
  <circle cx="280" cy="350" r="1" fill="#fff" opacity="0.9"/>
  <circle cx="380" cy="320" r="1.5" fill="#fff" opacity="0.6"/>
  <circle cx="480" cy="340" r="1" fill="#fff" opacity="0.8"/>
  
  <!-- Planet -->
  <circle cx="450" cy="100" r="40" fill="url(#planetGradient)" filter="url(#glow)"/>
  <ellipse cx="420" cy="80" rx="15" ry="8" fill="#1e40af" opacity="0.6"/>
  <ellipse cx="460" cy="90" rx="10" ry="5" fill="#1e40af" opacity="0.4"/>
  
  <!-- Astronaut -->
  <circle cx="150" cy="200" r="20" fill="#fff" filter="url(#glow)"/>
  <circle cx="145" cy="190" r="8" fill="#1e293b"/>
  <rect x="140" y="200" width="20" height="30" fill="#fff" rx="5"/>
  <rect x="135" y="210" width="10" height="20" fill="#64748b" rx="3"/>
  <rect x="155" y="210" width="10" height="20" fill="#64748b" rx="3"/>
  <rect x="145" y="230" width="10" height="15" fill="#64748b" rx="2"/>
  <rect x="155" y="230" width="10" height="15" fill="#64748b" rx="2"/>
  
  <!-- Rocket -->
  <ellipse cx="300" cy="120" rx="15" ry="30" fill="url(#rocketGradient)" transform="rotate(15 300 120)" filter="url(#glow)"/>
  <ellipse cx="300" cy="140" rx="20" ry="8" fill="#ef4444" transform="rotate(15 300 140)"/>
  <rect x="285" y="100" width="30" height="5" fill="#64748b" transform="rotate(15 300 102.5)"/>
  <rect x="290" y="95" width="20" height="5" fill="#64748b" transform="rotate(15 300 97.5)"/>
  
  <!-- Satellite -->
  <rect x="400" y="80" width="50" height="20" fill="#64748b" rx="5" filter="url(#glow)"/>
  <rect x="390" y="88" width="70" height="4" fill="#64748b"/>
  <rect x="395" y="85" width="60" height="2" fill="#64748b"/>
  <rect x="395" y="93" width="60" height="2" fill="#64748b"/>
  <circle cx="420" cy="90" r="3" fill="#fbbf24"/>
  
  <!-- Space Station -->
  <rect x="200" y="300" width="80" height="20" fill="#64748b" rx="5" filter="url(#glow)"/>
  <rect x="190" y="308" width="100" height="4" fill="#64748b"/>
  <rect x="195" y="305" width="90" height="2" fill="#64748b"/>
  <rect x="195" y="313" width="90" height="2" fill="#64748b"/>
  <circle cx="220" cy="310" r="3" fill="#fbbf24"/>
  <circle cx="260" cy="310" r="3" fill="#fbbf24"/>
  
  <!-- Comet -->
  <circle cx="500" cy="200" r="3" fill="#fff" filter="url(#glow)"/>
  <path d="M 500 200 L 480 190 L 485 200 L 480 210 Z" fill="#06b6d4" opacity="0.8"/>
  <path d="M 480 190 L 460 185 L 465 195 L 460 205 L 480 210 Z" fill="#06b6d4" opacity="0.6"/>
  
  <!-- Nebula -->
  <ellipse cx="500" cy="300" rx="80" ry="40" fill="rgba(236, 72, 153, 0.3)" filter="url(#glow)"/>
  <ellipse cx="520" cy="290" rx="60" ry="30" fill="rgba(124, 58, 237, 0.2)"/>
  <ellipse cx="480" cy="310" rx="50" ry="25" fill="rgba(99, 102, 241, 0.2)"/>
  
  <!-- Earth -->
  <circle cx="100" cy="350" r="30" fill="#3b82f6" filter="url(#glow)"/>
  <ellipse cx="85" cy="340" rx="20" ry="15" fill="#22c55e" opacity="0.8"/>
  <ellipse cx="110" cy="345" rx="15" ry="10" fill="#16a34a" opacity="0.6"/>
  <ellipse cx="95" cy="360" rx="18" ry="8" fill="#22c55e" opacity="0.7"/>
</svg>
